<svg width="156" height="80" viewBox="0 0 156 80" fill="none" xmlns="http://www.w3.org/2000/svg">
<path d="M79.1312 16.0338C78.2887 18.6215 76.6638 20.6074 74.2567 21.9915C71.8496 23.3756 68.8406 24.0677 65.2299 24.0677C62.3413 24.0677 59.3324 23.827 56.2031 23.3456C53.0738 22.8039 49.9445 22.142 46.8152 21.3597C46.0329 23.4057 45.4612 25.6624 45.1001 28.1298C44.7992 30.5369 44.4081 33.1547 43.9267 35.9831C43.2647 39.9549 42.3921 43.9868 41.3089 48.079C40.2257 52.1711 38.7814 55.9022 36.976 59.2722C35.1707 62.6422 32.8237 65.1998 29.9351 66.945C28.6714 67.6671 27.4678 68.4194 26.3244 69.2017C25.2412 69.984 24.0075 70.646 22.6234 71.1876C21.2995 71.7292 19.5844 72 17.4781 72C14.7701 72 12.724 71.4885 11.3399 70.4654C10.016 69.5026 9.11331 68.1185 8.63188 66.3131C8.21063 64.5078 8 62.3714 8 59.9041C8 59.4828 8.09027 58.7005 8.2708 57.5571C8.51152 56.4137 8.75223 55.2703 8.99295 54.1269C9.29384 52.9835 9.56465 52.2012 9.80536 51.78C10.2266 50.8171 10.9488 49.6135 11.9718 48.1693C13.055 46.725 14.2887 45.2807 15.6728 43.8364C17.0569 42.3921 18.4711 41.1885 19.9154 40.2257C21.3597 39.2628 22.6836 38.7814 23.8872 38.7814C24.3686 38.7814 24.9102 39.1725 25.512 39.9549C26.174 40.677 26.7457 41.5195 27.2271 42.4824C27.7085 43.4452 27.9492 44.2576 27.9492 44.9196C27.9492 45.1603 27.8289 45.732 27.5882 46.6347C27.4076 47.4772 27.0165 48.4401 26.4147 49.5233C25.8129 50.5463 24.9102 51.449 23.7066 52.2313C23.4659 52.2915 23.2252 52.3216 22.9845 52.3216C22.8039 52.3216 22.5933 52.3216 22.3526 52.3216C20.6676 52.3216 19.8251 51.9906 19.8251 51.3286C19.8251 50.787 20.3667 50.3056 21.4499 49.8843C22.5331 49.4029 23.3456 49.1321 23.8872 49.0719C24.489 49.0118 24.8801 48.771 25.0606 48.3498C25.2412 47.8684 25.3315 46.8453 25.3315 45.2807C25.3315 44.9798 25.2412 44.5284 25.0606 43.9267C24.9403 43.3249 24.7598 42.7532 24.519 42.2116C24.3385 41.67 24.1279 41.3992 23.8872 41.3992C22.8641 41.3992 21.8411 41.8505 20.8181 42.7532C19.8552 43.6559 18.9525 44.7692 18.11 46.0931C17.2675 47.417 16.5153 48.741 15.8533 50.0649C15.1913 51.3286 14.7099 52.3818 14.409 53.2243C14.2887 53.5853 14.078 54.1871 13.7772 55.0296C13.4763 55.8119 13.2055 56.6244 12.9647 57.4669C12.724 58.2492 12.6037 58.851 12.6037 59.2722C12.6037 60.0545 12.5736 60.8669 12.5134 61.7094C12.5134 62.4918 12.5134 63.2139 12.5134 63.8759C12.5134 65.5007 12.7842 66.8246 13.3258 67.8477C13.9276 68.8707 15.3117 69.3822 17.4781 69.3822C19.3437 69.3822 20.8782 69.0512 22.0818 68.3893C23.3456 67.6671 24.4288 66.8246 25.3315 65.8618C26.2943 64.8387 27.2271 63.8458 28.1298 62.8829C31.8007 59.1519 34.6591 55.0597 36.7052 50.6065C38.8115 46.0931 40.3159 41.0682 41.2186 35.5317C41.7 32.583 42.2116 29.9351 42.7532 27.5882C43.355 25.181 44.1373 22.9544 45.1001 20.9083C42.031 20.0658 39.0823 19.2233 36.2539 18.3808C33.4857 17.4781 30.9582 16.6958 28.6714 16.0338C27.4076 15.6126 26.3244 15.2214 25.4217 14.8604C24.5792 14.4391 23.2553 14.2285 21.4499 14.2285C20.126 14.2285 18.8021 14.409 17.4781 14.7701C16.2144 15.071 15.5825 15.8533 15.5825 17.1171C15.5825 17.4781 15.5524 17.8994 15.4922 18.3808C15.4922 18.8622 15.4922 19.3437 15.4922 19.8251C15.4922 20.9685 15.6427 22.142 15.9436 23.3456C16.2445 24.489 16.8764 25.4819 17.8392 26.3244C18.8021 27.1067 20.3065 27.5581 22.3526 27.6784C23.1951 27.7386 23.8571 27.5581 24.3385 27.1368C24.8801 26.7156 25.3315 26.2943 25.6925 25.8731C25.9332 25.2713 26.3846 24.9704 27.0465 24.9704C27.6483 24.9704 27.9492 25.3916 27.9492 26.2341C27.9492 26.4147 27.9191 26.5952 27.859 26.7757C27.859 26.9563 27.8289 27.1669 27.7687 27.4076C27.1669 28.1298 26.4448 28.8218 25.6023 29.4838C24.8199 30.0856 23.7367 30.3865 22.3526 30.3865C21.3296 30.3865 20.1561 30.2059 18.8322 29.8449C17.5684 29.4236 16.3347 28.7015 15.1312 27.6784C13.9276 26.5952 12.9647 25.1208 12.2426 23.2553C11.5806 21.3296 11.3399 18.8923 11.5205 15.9436C11.6408 14.74 12.0921 13.5966 12.8745 12.5134C13.717 11.4302 14.74 10.5576 15.9436 9.89563C17.2073 9.17348 18.441 8.81241 19.6446 8.81241C20.6074 8.81241 21.811 8.96286 23.2553 9.26375C24.6996 9.56464 26.174 9.92572 27.6784 10.347C29.2431 10.7682 30.6573 11.1895 31.921 11.6107C33.2449 12.032 34.268 12.363 34.9901 12.6037C36.9158 13.2055 38.8716 13.9577 40.8575 14.8604C42.8434 15.7029 44.8895 16.5454 46.9958 17.3879C47.1161 17.2073 47.2365 17.0268 47.3568 16.8463C47.5374 16.6657 47.6878 16.4551 47.8082 16.2144C48.4701 15.3117 49.1321 14.8604 49.7941 14.8604C50.095 14.8604 50.2454 15.0108 50.2454 15.3117C50.2454 15.8533 49.8242 16.5755 48.9817 17.4781C48.9215 17.5383 48.8613 17.6286 48.8011 17.7489C48.7409 17.8091 48.6507 17.8994 48.5303 18.0197C51.2985 19.103 54.1269 20.0357 57.0155 20.8181C59.9041 21.6004 62.913 21.9915 66.0423 21.9915C71.8195 21.9915 75.4302 19.9756 76.8745 15.9436C76.9346 14.3789 77.2656 13.5966 77.8674 13.5966C78.1683 13.5966 78.4391 13.8373 78.6798 14.3188C78.9807 14.8002 79.1312 15.3719 79.1312 16.0338Z" fill="#FDFDFD"/>
<path d="M76.6008 61.7094C76.7814 61.5289 77.0221 61.4387 77.323 61.4387C77.7442 61.4387 77.9549 61.6493 77.9549 62.0705C77.9549 62.3112 77.8044 62.6723 77.5035 63.1537C77.2628 63.6352 76.7212 64.2069 75.8787 64.8688C75.0362 65.591 74.1636 66.2529 73.2609 66.8547C72.4184 67.4565 71.2449 67.7574 69.7405 67.7574C68.1157 67.7574 66.8218 67.4565 65.8589 66.8547C64.9563 66.2529 64.2943 65.591 63.8731 64.8688C63.512 64.0865 63.2713 63.4847 63.1509 63.0635C62.4288 63.6051 61.6765 64.3272 60.8942 65.2299C60.1721 66.0724 59.1189 66.8547 57.7348 67.5769C56.3507 68.2388 54.3648 68.5698 51.7771 68.5698C50.3329 68.5698 49.0089 68.2388 47.8054 67.5769C46.662 66.8547 46.0903 65.3202 46.0903 62.9732C46.0903 62.3112 46.1204 61.6192 46.1805 60.897C46.3009 60.1147 46.4814 59.2722 46.7221 58.3695C47.4443 55.5411 48.2868 53.3145 49.2496 51.6897C50.2125 50.0649 51.6568 48.8613 53.5825 48.079C54.7861 47.5976 56.2605 47.1462 58.0056 46.725C59.7508 46.3037 61.2854 45.9426 62.6093 45.6417C63.0306 45.5214 63.3916 45.1302 63.6925 44.4683C64.0536 43.7461 64.4448 43.0842 64.866 42.4824C65.1067 42.1815 65.3775 41.9408 65.6784 41.7602C65.9793 41.5195 66.3103 41.3992 66.6714 41.3992C66.9723 41.3992 67.3634 41.5496 67.8448 41.8505C68.2661 42.1514 68.5369 42.7231 68.6573 43.5656C68.8378 44.4081 68.9281 45.1904 68.9281 45.9126C68.8679 46.2736 68.7174 46.725 68.4767 47.2666C68.2962 47.748 68.1457 48.2896 68.0254 48.8914C67.905 49.6737 67.6041 50.787 67.1227 52.2313C66.6413 53.6756 66.4006 54.8792 66.4006 55.842C66.4006 56.6845 66.3404 57.7377 66.22 59.0014C66.0997 60.205 66.0997 61.0475 66.22 61.5289C66.882 62.9732 67.8148 63.9361 69.0183 64.4175C70.2219 64.8387 71.275 64.9591 72.1777 64.7786C72.8397 64.6582 73.5919 64.267 74.4344 63.6051C75.2769 62.9431 75.9991 62.3112 76.6008 61.7094ZM61.9774 51.4189C61.8571 50.9375 61.5562 50.426 61.0747 49.8843C60.6535 49.3427 60.1119 49.0719 59.4499 49.0719C59.3296 49.0719 59.0889 49.1321 58.7278 49.2525C57.7047 49.6135 56.6215 50.3056 55.4781 51.3286C54.3347 52.2915 53.3418 53.5552 52.4993 55.1199C51.6568 56.6845 51.1754 58.52 51.055 60.6262C51.055 61.228 51.2355 62.0103 51.5966 62.9732C52.0179 63.9361 52.5595 64.7485 53.2214 65.4104C53.8834 66.0724 54.5454 66.2529 55.2073 65.952C56.6516 65.3503 57.8552 64.5078 58.8181 63.4245C59.8411 62.2811 60.6836 60.897 61.3456 59.2722C61.6464 58.4899 61.8571 57.6775 61.9774 56.835C62.158 55.9323 62.2482 55.0898 62.2482 54.3075C62.2482 53.5853 62.2181 52.9835 62.158 52.5021C62.0978 51.9605 62.0376 51.5994 61.9774 51.4189Z" fill="#FDFDFD"/>
<path d="M97.2687 62.6121C96.4864 63.3945 95.7943 64.1768 95.1925 64.9591C94.5907 65.7414 93.2668 66.6441 91.2207 67.6671C90.98 68.0282 90.4384 68.5698 89.5959 69.292C88.8136 70.0141 87.2489 70.4354 84.902 70.5557C83.3373 70.6159 82.0736 70.2247 81.1107 69.3822C80.208 68.5999 79.516 67.637 79.0345 66.4937C78.5531 65.3503 78.1319 64.2971 77.7708 63.3343C77.7106 63.3945 77.4398 63.6352 76.9584 64.0564C76.477 64.4777 75.9955 64.8989 75.5141 65.3202C74.9725 65.7414 74.6415 66.0122 74.5211 66.1326C74.461 66.1928 74.3406 66.2229 74.1601 66.2229C73.8592 66.2229 73.6185 66.0724 73.4379 65.7715C73.1972 65.4104 73.1972 65.1095 73.4379 64.8688C74.5813 63.7254 75.4539 62.8528 76.0557 62.2511C76.6575 61.5891 77.1991 60.9572 77.6805 60.3554C78.162 59.7536 78.7337 59.0014 79.3956 58.0987C80.4187 56.5341 81.5019 55.15 82.6453 53.9464C83.8488 52.6827 84.6011 51.7499 84.902 51.1481C84.9621 51.0879 84.9922 50.9676 84.9922 50.787C84.9922 50.6065 84.902 50.456 84.7214 50.3357C84.6011 50.2153 84.5108 50.0649 84.4506 49.8843C84.2099 48.9215 84.0896 48.0188 84.0896 47.1763C84.0896 45.8524 84.6011 44.2877 85.6241 42.4824C86.0454 42.1815 86.6171 41.9408 87.3392 41.7602C88.0613 41.5195 88.633 41.4894 89.0543 41.67C89.5357 41.9107 89.8366 42.1815 89.957 42.4824C90.1375 42.7833 90.288 43.1744 90.4083 43.6559C90.4083 43.716 90.4083 43.7762 90.4083 43.8364C90.4685 43.8966 90.4986 43.9868 90.4986 44.1072C90.4986 44.4683 90.4384 44.8594 90.318 45.2807C90.1977 45.7019 90.0472 46.1533 89.8667 46.6347C89.8667 46.8754 89.5658 47.3268 88.964 47.9887C88.4224 48.6507 88.2419 49.0719 88.4224 49.2525C88.7835 50.0348 89.3853 51.0578 90.2278 52.3216C91.2508 53.7659 91.9429 55.0898 92.3039 56.2934C92.7252 57.4969 92.9358 58.5802 92.9358 59.543C92.9358 60.6864 92.7553 61.6794 92.3942 62.5219C92.0933 63.3644 91.8526 64.0865 91.6721 64.6883C92.2137 64.7485 92.8455 64.4777 93.5677 63.8759C94.2898 63.2139 94.9819 62.4918 95.6439 61.7094C96.366 60.8669 96.9076 60.2652 97.2687 59.9041C97.6297 59.543 97.9006 59.3625 98.0811 59.3625C98.382 59.3625 98.382 59.8138 98.0811 60.7165C97.8404 61.6192 97.5696 62.2511 97.2687 62.6121ZM88.5127 45.2807C88.5127 45.04 88.4826 44.7692 88.4224 44.4683C88.3622 44.1674 88.1817 43.9868 87.8808 43.9267H87.7905C87.4896 43.9267 87.2489 44.0771 87.0684 44.378C86.8879 44.6187 86.7374 44.8594 86.6171 45.1001C86.4365 45.5816 86.256 46.0028 86.0755 46.3639C85.9551 46.6648 86.0153 46.9657 86.256 47.2666C86.4967 47.3869 86.918 47.1462 87.5197 46.5444C88.1817 45.8825 88.5127 45.4612 88.5127 45.2807ZM88.6932 59.7236C88.6932 58.8209 88.5127 57.858 88.1516 56.835C87.8507 55.7518 87.4896 54.7889 87.0684 53.9464C86.7073 53.1039 86.4365 52.5623 86.256 52.3216C86.256 52.3216 85.8949 52.7729 85.1728 53.6756C84.4506 54.5181 83.6683 55.4509 82.8258 56.4739C82.2842 57.0757 81.7426 57.858 81.201 58.8209C80.6594 59.7837 80.3284 60.6262 80.208 61.3484C80.208 61.3484 80.4788 61.7095 81.0204 62.4316C81.5621 63.0936 82.224 63.7254 83.0063 64.3272C83.8488 64.929 84.6613 65.1396 85.4436 64.9591C86.6472 64.6582 87.4897 63.9662 87.9711 62.8829C88.4525 61.7395 88.6932 60.6864 88.6932 59.7236ZM85.6241 66.7645H84.8117C84.571 66.7645 84.3002 66.7645 83.9993 66.7645C83.6984 66.7043 83.3975 66.6441 83.0966 66.5839C82.7957 66.4636 82.3444 66.2229 81.7426 65.8618C81.1408 65.5007 80.8399 65.3202 80.8399 65.3202C80.8399 65.3202 80.8098 65.3803 80.7496 65.5007C80.7496 65.6211 80.7496 65.7715 80.7496 65.952C80.7496 66.1928 80.7797 66.4636 80.8399 66.7645C80.9603 67.0654 81.1709 67.3662 81.4718 67.6671C81.9532 68.0282 82.3745 68.3291 82.7355 68.5698C83.0966 68.7504 83.578 68.7504 84.1798 68.5698C84.6011 68.4495 84.9321 68.1185 85.1728 67.5769C85.4737 67.0353 85.6241 66.7645 85.6241 66.7645Z" fill="#FDFDFD"/>
<path d="M127.504 63.9662C126.421 65.5308 125.217 66.7344 123.894 67.5769C122.63 68.3592 121.426 68.7504 120.283 68.7504C119.139 68.7504 118.207 68.3592 117.484 67.5769C116.642 66.1326 116.04 64.6582 115.679 63.1537C115.378 61.5891 115.107 59.5731 114.867 57.1058C114.686 54.6385 114.295 51.3286 113.693 47.1763C113.693 47.1763 113.513 46.9657 113.152 46.5444C112.791 46.063 112.369 45.8223 111.888 45.8223C111.587 45.8223 111.256 46.0028 110.895 46.3639C110.534 46.6648 110.173 47.2666 109.812 48.1693C108.909 50.456 108.187 52.8331 107.645 55.3004C107.164 57.7678 106.713 60.0545 106.291 62.1608C105.87 64.267 105.358 65.922 104.757 67.1255C104.335 67.968 103.794 68.3893 103.132 68.3893C102.59 68.3893 102.079 68.1185 101.597 67.5769C101.597 67.5769 101.627 67.0353 101.688 65.952C101.808 64.8086 101.958 63.4245 102.139 61.7997C102.319 60.1147 102.47 58.4899 102.59 56.9252C102.47 56.9854 102.139 57.3465 101.597 58.0085C101.056 58.6102 100.454 59.212 99.792 59.8138C99.13 60.3554 98.5282 60.5961 97.9866 60.536C97.6255 60.1147 97.8061 59.4828 98.5282 58.6403C99.2503 57.7377 100.063 56.7447 100.965 55.6615C101.928 54.5181 102.59 53.4048 102.951 52.3216C103.794 49.7941 104.366 47.086 104.666 44.1975C105.028 41.3089 105.419 38.5708 105.84 35.9831C106.743 30.3865 107.645 25.4819 108.548 21.2694C109.511 17.0569 110.654 13.8072 111.978 11.5205C113.302 9.17348 114.987 8 117.033 8C117.876 8 118.538 8.33098 119.019 8.99295C119.5 9.59474 119.741 10.7381 119.741 12.4231C119.741 12.6638 119.741 12.9647 119.741 13.3258C119.741 13.6869 119.711 14.048 119.651 14.409C119.29 18.441 118.538 22.8942 117.394 27.7687C116.251 32.583 114.205 37.8185 111.256 43.4753C111.918 43.2948 112.58 43.2045 113.242 43.2045C114.445 43.2045 115.559 43.4151 116.582 43.8364C117.605 44.1975 118.297 44.6187 118.658 45.1001C119.019 45.5816 119.26 46.1232 119.38 46.725C119.5 47.3268 119.561 48.0188 119.561 48.8011C119.561 50.3056 119.38 52.1711 119.019 54.3977C118.718 56.6244 118.568 59.2421 118.568 62.2511C118.568 63.2741 118.899 64.0564 119.561 64.598C120.283 65.0795 121.125 65.3202 122.088 65.3202C122.931 65.3202 123.743 65.1396 124.525 64.7786C125.308 64.4175 125.94 63.906 126.421 63.244C126.481 63.1236 126.662 63.0635 126.963 63.0635C127.143 63.0635 127.294 63.1537 127.414 63.3343C127.594 63.4546 127.625 63.6653 127.504 63.9662ZM117.484 11.701C117.484 11.1594 117.364 10.8886 117.123 10.8886C116.762 10.8886 116.191 11.4001 115.408 12.4231C114.686 13.386 113.964 14.6497 113.242 16.2144C112.52 17.779 111.918 19.4339 111.437 21.1791C110.714 23.9473 110.113 26.4448 109.631 28.6714C109.15 30.8378 108.759 33.4255 108.458 36.4344C108.398 37.3371 108.337 38.3601 108.277 39.5035C108.217 40.5867 108.157 41.5195 108.097 42.3018C108.097 43.0842 108.097 43.4753 108.097 43.4753C108.999 42.031 109.962 40.5567 110.985 39.0522C112.008 37.5477 112.851 35.7725 113.513 33.7264C114.415 31.0785 115.138 28.3404 115.679 25.512C116.281 22.6234 116.732 19.9455 117.033 17.4781C117.334 15.0108 117.484 13.0851 117.484 11.701Z" fill="#FDFDFD"/>
<path d="M147.853 51.78C147.853 53.0437 147.583 54.6986 147.041 56.7447C146.499 58.7908 145.777 60.7165 144.874 62.5219C144.032 64.3874 143.069 65.7715 141.986 66.6742C140.963 67.5167 139.97 68.1185 139.007 68.4795C138.044 68.7804 137.262 69.0813 136.66 69.3822C136.419 69.4424 136.149 69.5026 135.848 69.5628C135.607 69.6831 135.336 69.7433 135.035 69.7433C133.832 69.7433 132.899 69.4123 132.237 68.7504C131.996 68.5096 131.605 68.2689 131.063 68.0282C130.582 67.7875 130.131 67.3662 129.709 66.7645C129.288 66.1627 129.078 65.1697 129.078 63.7856C129.078 62.3413 129.258 60.9572 129.619 59.6333C128.536 58.3695 127.994 56.9854 127.994 55.481C127.994 54.5783 128.205 53.7057 128.626 52.8632C129.77 50.6968 131.214 49.0118 132.959 47.8082C134.704 46.6046 136.359 45.7621 137.924 45.2807C139.549 44.7992 140.662 44.5585 141.264 44.5585C143.49 44.5585 145.145 45.2807 146.228 46.725C147.312 48.1693 147.853 49.8543 147.853 51.78ZM144.152 52.2313C144.152 50.8472 143.671 49.7038 142.708 48.8011C141.805 47.8984 140.662 47.4471 139.278 47.4471C138.134 47.4471 136.961 47.8082 135.757 48.5303C134.614 49.1923 133.621 50.0348 132.779 51.0578C131.936 52.0809 131.394 53.0738 131.154 54.0367C131.094 54.3977 131.033 54.7287 130.973 55.0296C130.973 55.3305 130.973 55.6314 130.973 55.9323C131.635 54.488 132.327 53.2844 133.049 52.3216C133.832 51.3587 134.403 50.7569 134.764 50.5162C135.065 50.2755 135.456 50.1551 135.938 50.1551C136.6 50.1551 136.931 50.3357 136.931 50.6968C136.931 50.9375 136.6 51.3888 135.938 52.0508C135.336 52.6526 134.644 53.465 133.862 54.488C133.079 55.4509 132.417 56.6544 131.876 58.0987C132.357 58.7005 132.989 59.1519 133.772 59.4528C134.614 59.6935 135.426 59.8138 136.209 59.8138C137.051 59.8138 137.834 59.6634 138.556 59.3625C139.338 59.0014 139.85 58.52 140.09 57.9182C140.15 57.7377 140.181 57.5872 140.181 57.4669C140.241 57.2863 140.271 57.1359 140.271 57.0155C140.271 56.4137 140 56.0527 139.458 55.9323C138.977 55.7518 138.496 55.6916 138.014 55.7518H137.834C137.172 55.7518 136.841 55.6013 136.841 55.3004C136.841 55.1199 136.901 54.9394 137.021 54.7588C137.202 54.5783 137.352 54.4278 137.473 54.3075C137.834 53.9464 138.225 53.7659 138.646 53.7659C139.248 53.7659 139.91 54.157 140.632 54.9394C141.294 55.842 141.625 56.7146 141.625 57.5571C141.625 58.6403 141.083 59.4828 140 60.0846C138.977 60.6864 137.834 61.1077 136.57 61.3484C135.306 61.5891 134.343 61.7094 133.681 61.7094C132.718 61.7094 131.936 61.4988 131.334 61.0776C131.274 61.1979 131.244 61.4687 131.244 61.89C131.244 63.575 131.695 64.7184 132.598 65.3202C133.501 65.8618 134.253 66.283 134.855 66.5839C135.216 66.7043 135.517 66.7645 135.757 66.7645C136.6 66.7645 137.473 66.4034 138.375 65.6812C139.338 64.9591 140.181 63.9661 140.903 62.7024C141.444 61.7395 141.956 60.5961 142.437 59.2722C142.919 57.9483 143.31 56.6544 143.611 55.3907C143.972 54.0668 144.152 53.0136 144.152 52.2313Z" fill="#FDFDFD"/>
</svg>
