<svg width="139" height="72" viewBox="0 0 139 72" fill="none" xmlns="http://www.w3.org/2000/svg">
<path d="M70.2398 15.0296C69.5026 17.2938 68.0809 19.0315 65.9746 20.2426C63.8684 21.4537 61.2355 22.0592 58.0762 22.0592C55.5487 22.0592 52.9158 21.8486 50.1777 21.4274C47.4396 20.9535 44.7015 20.3742 41.9633 19.6897C41.2788 21.48 40.7786 23.4546 40.4626 25.6135C40.1993 27.7198 39.8571 30.0103 39.4358 32.4852C38.8566 35.9605 38.0931 39.4885 37.1453 43.0691C36.1975 46.6497 34.9337 49.9144 33.354 52.8632C31.7743 55.8119 29.7207 58.0498 27.1932 59.5769C26.0874 60.2087 25.0343 60.8669 24.0339 61.5515C23.086 62.236 22.0066 62.8152 20.7955 63.2891C19.637 63.763 18.1363 64 16.2934 64C13.9238 64 12.1335 63.5524 10.9224 62.6573C9.76399 61.8148 8.97414 60.6037 8.55289 59.024C8.1843 57.4443 8 55.575 8 53.4161C8 53.0475 8.07898 52.363 8.23695 51.3625C8.44758 50.362 8.6582 49.3615 8.86883 48.3611C9.13211 47.3606 9.36906 46.6761 9.57969 46.3075C9.94828 45.465 10.5802 44.4118 11.4753 43.1481C12.4231 41.8843 13.5026 40.6206 14.7137 39.3568C15.9248 38.0931 17.1622 37.04 18.426 36.1975C19.6897 35.355 20.8481 34.9337 21.9013 34.9337C22.3225 34.9337 22.7964 35.276 23.323 35.9605C23.9022 36.5924 24.4024 37.3296 24.8237 38.1721C25.2449 39.0146 25.4556 39.7254 25.4556 40.3047C25.4556 40.5153 25.3503 41.0155 25.1396 41.8054C24.9817 42.5425 24.6394 43.3851 24.1128 44.3329C23.5863 45.228 22.7964 46.0179 21.7433 46.7024C21.5327 46.7551 21.322 46.7814 21.1114 46.7814C20.9535 46.7814 20.7692 46.7814 20.5585 46.7814C19.0842 46.7814 18.347 46.4918 18.347 45.9125C18.347 45.4386 18.8209 45.0174 19.7687 44.6488C20.7165 44.2276 21.4274 43.9906 21.9013 43.9379C22.4278 43.8853 22.7701 43.6747 22.9281 43.3061C23.086 42.8848 23.165 41.9897 23.165 40.6206C23.165 40.3573 23.086 39.9624 22.9281 39.4358C22.8228 38.9093 22.6648 38.409 22.4542 37.9351C22.2962 37.4612 22.1119 37.2243 21.9013 37.2243C21.0061 37.2243 20.111 37.6192 19.2158 38.409C18.3733 39.1989 17.5835 40.173 16.8463 41.3315C16.1091 42.4899 15.4509 43.6483 14.8717 44.8068C14.2924 45.9126 13.8712 46.834 13.6079 47.5712C13.5026 47.8872 13.3183 48.4137 13.055 49.1509C12.7917 49.8354 12.5548 50.5463 12.3441 51.2835C12.1335 51.968 12.0282 52.4946 12.0282 52.8632C12.0282 53.5477 12.0019 54.2586 11.9492 54.9958C11.9492 55.6803 11.9492 56.3122 11.9492 56.8914C11.9492 58.3131 12.1862 59.4716 12.6601 60.3667C13.1866 61.2619 14.3977 61.7095 16.2934 61.7095C17.9257 61.7095 19.2685 61.4198 20.3216 60.8406C21.4274 60.2087 22.3752 59.4716 23.165 58.6291C24.0075 57.7339 24.8237 56.8651 25.6135 56.0226C28.8256 52.7579 31.3268 49.1772 33.1171 45.2807C34.96 41.3315 36.2764 36.9346 37.0663 32.0903C37.4875 29.5101 37.9351 27.1932 38.409 25.1396C38.9356 23.0334 39.6201 21.0851 40.4626 19.2948C37.7772 18.5576 35.197 17.8204 32.7221 17.0832C30.3 16.2934 28.0884 15.6088 26.0874 15.0296C24.9817 14.661 24.0339 14.3188 23.244 14.0028C22.5068 13.6342 21.3484 13.4499 19.7687 13.4499C18.6102 13.4499 17.4518 13.6079 16.2934 13.9238C15.1876 14.1871 14.6347 14.8716 14.6347 15.9774C14.6347 16.2934 14.6084 16.662 14.5557 17.0832C14.5557 17.5045 14.5557 17.9257 14.5557 18.347C14.5557 19.3474 14.6874 20.3742 14.9506 21.4274C15.2139 22.4278 15.7668 23.2967 16.6093 24.0338C17.4518 24.7184 18.7682 25.1133 20.5585 25.2186C21.2957 25.2713 21.8749 25.1133 22.2962 24.7447C22.7701 24.3761 23.165 24.0075 23.481 23.6389C23.6916 23.1124 24.0865 22.8491 24.6657 22.8491C25.1923 22.8491 25.4556 23.2177 25.4556 23.9549C25.4556 24.1128 25.4292 24.2708 25.3766 24.4288C25.3766 24.5867 25.3503 24.771 25.2976 24.9817C24.771 25.6135 24.1392 26.2191 23.402 26.7983C22.7174 27.3249 21.7696 27.5882 20.5585 27.5882C19.6634 27.5882 18.6366 27.4302 17.4781 27.1142C16.3724 26.7457 15.2929 26.1138 14.2398 25.2186C13.1866 24.2708 12.3441 22.9807 11.7123 21.3484C11.1331 19.6634 10.9224 17.5308 11.0804 14.9506C11.1857 13.8975 11.5806 12.897 12.2652 11.9492C13.0024 11.0014 13.8975 10.2379 14.9506 9.65868C16.0564 9.0268 17.1359 8.71086 18.189 8.71086C19.0315 8.71086 20.0846 8.8425 21.3484 9.10578C22.6121 9.36906 23.9022 9.685 25.2186 10.0536C26.5877 10.4222 27.8251 10.7908 28.9309 11.1594C30.0893 11.528 30.9845 11.8176 31.6164 12.0282C33.3014 12.5548 35.0127 13.213 36.7504 14.0028C38.488 14.74 40.2783 15.4772 42.1213 16.2144C42.2266 16.0564 42.3319 15.8984 42.4372 15.7405C42.5952 15.5825 42.7268 15.3982 42.8322 15.1876C43.4114 14.3977 43.9906 14.0028 44.5698 14.0028C44.8331 14.0028 44.9647 14.1345 44.9647 14.3977C44.9647 14.8717 44.5961 15.5035 43.859 16.2934C43.8063 16.346 43.7536 16.425 43.701 16.5303C43.6483 16.583 43.5693 16.662 43.464 16.7673C45.8862 17.7151 48.3611 18.5313 50.8886 19.2158C53.4161 19.9003 56.0489 20.2426 58.787 20.2426C63.842 20.2426 67.0014 18.4786 68.2652 14.9506C68.3178 13.5816 68.6074 12.897 69.134 12.897C69.3973 12.897 69.6342 13.1077 69.8449 13.5289C70.1081 13.9502 70.2398 14.4504 70.2398 15.0296Z" fill="#FDFDFD"/>
<path d="M68.0257 54.9958C68.1837 54.8378 68.3943 54.7588 68.6576 54.7588C69.0262 54.7588 69.2105 54.9431 69.2105 55.3117C69.2105 55.5223 69.0789 55.8383 68.8156 56.2595C68.605 56.6808 68.1311 57.181 67.3939 57.7602C66.6567 58.3921 65.8932 58.9713 65.1033 59.4979C64.3661 60.0244 63.3393 60.2877 62.0229 60.2877C60.6012 60.2877 59.4691 60.0244 58.6266 59.4979C57.8367 58.9713 57.2575 58.3921 56.8889 57.7602C56.573 57.0757 56.3624 56.5491 56.2571 56.1805C55.6252 56.6544 54.967 57.2863 54.2824 58.0762C53.6506 58.8134 52.7291 59.4979 51.518 60.1298C50.3069 60.709 48.5692 60.9986 46.305 60.9986C45.0413 60.9986 43.8828 60.709 42.8297 60.1298C41.8292 59.4979 41.329 58.1551 41.329 56.1016C41.329 55.5223 41.3553 54.9168 41.408 54.2849C41.5133 53.6004 41.6712 52.8632 41.8819 52.0733C42.5137 49.5985 43.2509 47.6502 44.0934 46.2285C44.9359 44.8068 46.1997 43.7536 47.8847 43.0691C48.9378 42.6479 50.2279 42.2529 51.7549 41.8843C53.282 41.5157 54.6247 41.1998 55.7831 40.9365C56.1517 40.8312 56.4677 40.4889 56.731 39.9097C57.0469 39.2779 57.3892 38.6986 57.7578 38.1721C57.9684 37.9088 58.2053 37.6982 58.4686 37.5402C58.7319 37.3296 59.0215 37.2243 59.3374 37.2243C59.6007 37.2243 59.943 37.3559 60.3642 37.6192C60.7328 37.8825 60.9698 38.3827 61.0751 39.1199C61.2331 39.8571 61.3121 40.5416 61.3121 41.1735C61.2594 41.4894 61.1278 41.8843 60.9171 42.3582C60.7592 42.7795 60.6275 43.2534 60.5222 43.78C60.4169 44.4645 60.1536 45.4386 59.7324 46.7024C59.3111 47.9661 59.1005 49.0193 59.1005 49.8618C59.1005 50.599 59.0478 51.5205 58.9425 52.6262C58.8372 53.6794 58.8372 54.4166 58.9425 54.8378C59.5217 56.1016 60.3379 56.9441 61.391 57.3653C62.4442 57.7339 63.3657 57.8392 64.1555 57.6812C64.7347 57.5759 65.3929 57.2337 66.1301 56.6544C66.8673 56.0752 67.4992 55.5223 68.0257 54.9958ZM55.2302 45.9915C55.1249 45.5703 54.8617 45.1227 54.4404 44.6488C54.0718 44.1749 53.5979 43.9379 53.0187 43.9379C52.9134 43.9379 52.7027 43.9906 52.3868 44.0959C51.4917 44.4118 50.5438 45.0174 49.5434 45.9125C48.5429 46.7551 47.6741 47.8608 46.9369 49.2299C46.1997 50.599 45.7784 52.205 45.6731 54.048C45.6731 54.5745 45.8311 55.2591 46.147 56.1016C46.5156 56.9441 46.9895 57.6549 47.5688 58.2341C48.148 58.8134 48.7272 58.9713 49.3064 58.708C50.5702 58.1815 51.6233 57.4443 52.4658 56.4965C53.361 55.496 54.0981 54.2849 54.6774 52.8632C54.9406 52.1787 55.1249 51.4678 55.2302 50.7306C55.3882 49.9408 55.4672 49.2036 55.4672 48.519C55.4672 47.8872 55.4409 47.3606 55.3882 46.9394C55.3356 46.4654 55.2829 46.1495 55.2302 45.9915Z" fill="#FDFDFD"/>
<path d="M86.1101 55.7856C85.4256 56.4701 84.82 57.1547 84.2935 57.8392C83.7669 58.5237 82.6085 59.3136 80.8181 60.2087C80.6075 60.5247 80.1336 60.9986 79.3964 61.6305C78.7119 62.2623 77.3428 62.6309 75.2892 62.7362C73.9202 62.7889 72.8144 62.4466 71.9719 61.7095C71.182 61.0249 70.5765 60.1824 70.1552 59.1819C69.734 58.1815 69.3654 57.26 69.0494 56.4175C68.9968 56.4701 68.7598 56.6808 68.3386 57.0494C67.9173 57.418 67.4961 57.7866 67.0748 58.1551C66.6009 58.5237 66.3113 58.7607 66.206 58.866C66.1533 58.9187 66.048 58.945 65.8901 58.945C65.6268 58.945 65.4162 58.8134 65.2582 58.5501C65.0476 58.2341 65.0476 57.9709 65.2582 57.7602C66.2587 56.7598 67.0222 55.9962 67.5487 55.4697C68.0753 54.8905 68.5492 54.3376 68.9705 53.811C69.3917 53.2844 69.8919 52.6262 70.4712 51.8364C71.3663 50.4673 72.3141 49.2562 73.3146 48.2031C74.3677 47.0973 75.0259 46.2811 75.2892 45.7546C75.3419 45.7019 75.3682 45.5966 75.3682 45.4386C75.3682 45.2807 75.2892 45.149 75.1313 45.0437C75.0259 44.9384 74.947 44.8068 74.8943 44.6488C74.6837 43.8063 74.5784 43.0165 74.5784 42.2793C74.5784 41.1208 75.0259 39.7518 75.9211 38.1721C76.2897 37.9088 76.7899 37.6982 77.4218 37.5402C78.0537 37.3296 78.5539 37.3032 78.9225 37.4612C79.3438 37.6718 79.607 37.9088 79.7124 38.1721C79.8703 38.4354 80.002 38.7776 80.1073 39.1989C80.1073 39.2515 80.1073 39.3042 80.1073 39.3568C80.1599 39.4095 80.1863 39.4885 80.1863 39.5938C80.1863 39.9097 80.1336 40.252 80.0283 40.6206C79.923 40.9892 79.7913 41.3841 79.6334 41.8054C79.6334 42.016 79.3701 42.4109 78.8435 42.9901C78.3696 43.5693 78.2117 43.9379 78.3696 44.0959C78.6856 44.7804 79.2121 45.6756 79.9493 46.7814C80.8445 48.0451 81.45 49.2036 81.7659 50.2567C82.1345 51.3098 82.3188 52.2576 82.3188 53.1001C82.3188 54.1006 82.1609 54.9694 81.8449 55.7066C81.5817 56.4438 81.371 57.0757 81.2131 57.6023C81.687 57.6549 82.2399 57.418 82.8717 56.8914C83.5036 56.3122 84.1092 55.6803 84.6884 54.9958C85.3203 54.2586 85.7942 53.732 86.1101 53.4161C86.426 53.1001 86.663 52.9422 86.821 52.9422C87.0842 52.9422 87.0842 53.3371 86.821 54.1269C86.6103 54.9168 86.3734 55.4697 86.1101 55.7856ZM78.4486 40.6206C78.4486 40.41 78.4223 40.173 78.3696 39.9097C78.317 39.6464 78.159 39.4885 77.8957 39.4358H77.8167C77.5534 39.4358 77.3428 39.5675 77.1848 39.8307C77.0269 40.0414 76.8952 40.252 76.7899 40.4626C76.632 40.8839 76.474 41.2525 76.316 41.5684C76.2107 41.8317 76.2634 42.095 76.474 42.3582C76.6846 42.4636 77.0532 42.2529 77.5798 41.7264C78.159 41.1472 78.4486 40.7786 78.4486 40.6206ZM78.6066 53.2581C78.6066 52.4683 78.4486 51.6258 78.1327 50.7306C77.8694 49.7828 77.5534 48.9403 77.1848 48.2031C76.8689 47.4659 76.632 46.992 76.474 46.7814C76.474 46.7814 76.1581 47.1763 75.5262 47.9661C74.8943 48.7033 74.2098 49.5195 73.4726 50.4147C72.9987 50.9412 72.5248 51.6258 72.0509 52.4683C71.577 53.3108 71.2873 54.048 71.182 54.6798C71.182 54.6798 71.419 54.9958 71.8929 55.6276C72.3668 56.2069 72.946 56.7598 73.6306 57.2863C74.3677 57.8129 75.0786 57.9972 75.7631 57.8392C76.8163 57.5759 77.5534 56.9704 77.9747 56.0226C78.3959 55.0221 78.6066 54.1006 78.6066 53.2581ZM75.9211 59.4189H75.2102C74.9996 59.4189 74.7627 59.4189 74.4994 59.4189C74.2361 59.3662 73.9728 59.3136 73.7095 59.2609C73.4463 59.1556 73.0513 58.945 72.5248 58.6291C71.9982 58.3131 71.7349 58.1551 71.7349 58.1551C71.7349 58.1551 71.7086 58.2078 71.6559 58.3131C71.6559 58.4184 71.6559 58.5501 71.6559 58.708C71.6559 58.9187 71.6823 59.1556 71.7349 59.4189C71.8402 59.6822 72.0245 59.9455 72.2878 60.2087C72.7091 60.5247 73.0777 60.788 73.3936 60.9986C73.7095 61.1566 74.1308 61.1566 74.6573 60.9986C75.0259 60.8933 75.3156 60.6037 75.5262 60.1298C75.7895 59.6559 75.9211 59.4189 75.9211 59.4189Z" fill="#FDFDFD"/>
<path d="M112.566 56.9704C111.618 58.3394 110.565 59.3926 109.407 60.1298C108.301 60.8143 107.248 61.1566 106.247 61.1566C105.247 61.1566 104.431 60.8143 103.799 60.1298C103.062 58.866 102.535 57.5759 102.219 56.2595C101.956 54.8905 101.719 53.1265 101.508 50.9676C101.35 48.8087 101.008 45.9126 100.482 42.2793C100.482 42.2793 100.324 42.095 100.008 41.7264C99.6917 41.3051 99.3231 41.0945 98.9019 41.0945C98.6386 41.0945 98.349 41.2525 98.0331 41.5684C97.7171 41.8317 97.4012 42.3582 97.0852 43.1481C96.2954 45.149 95.6635 47.229 95.1896 49.3879C94.7684 51.5468 94.3734 53.5477 94.0049 55.3907C93.6363 57.2337 93.1887 58.6817 92.6621 59.7348C92.2935 60.472 91.8196 60.8406 91.2404 60.8406C90.7665 60.8406 90.3189 60.6037 89.8977 60.1298C89.8977 60.1298 89.924 59.6559 89.9766 58.708C90.0819 57.7076 90.2136 56.4965 90.3716 55.0747C90.5295 53.6004 90.6612 52.1787 90.7665 50.8096C90.6612 50.8622 90.3716 51.1782 89.8977 51.7574C89.4237 52.284 88.8972 52.8105 88.318 53.3371C87.7387 53.811 87.2122 54.0216 86.7383 53.969C86.4223 53.6004 86.5803 53.0475 87.2122 52.3103C87.844 51.5205 88.5549 50.6516 89.3448 49.7038C90.1873 48.7033 90.7665 47.7292 91.0824 46.7814C91.8196 44.5698 92.3198 42.2003 92.5831 39.6728C92.8991 37.1453 93.2413 34.7494 93.6099 32.4852C94.3998 27.5882 95.1896 23.2967 95.9795 19.6107C96.822 15.9248 97.8224 13.0813 98.9809 11.0804C100.139 9.0268 101.614 8 103.404 8C104.141 8 104.72 8.28961 105.142 8.86883C105.563 9.39539 105.774 10.3959 105.774 11.8702C105.774 12.0809 105.774 12.3441 105.774 12.6601C105.774 12.976 105.747 13.292 105.695 13.6079C105.379 17.1359 104.72 21.0324 103.72 25.2976C102.719 29.5101 100.929 34.0912 98.349 39.0409C98.9282 38.8829 99.5074 38.8039 100.087 38.8039C101.14 38.8039 102.114 38.9882 103.009 39.3568C103.904 39.6728 104.51 40.0414 104.826 40.4626C105.142 40.8839 105.352 41.3578 105.458 41.8843C105.563 42.4109 105.616 43.0165 105.616 43.701C105.616 45.0174 105.458 46.6497 105.142 48.598C104.878 50.5463 104.747 52.8369 104.747 55.4697C104.747 56.3648 105.036 57.0494 105.616 57.5233C106.247 57.9445 106.985 58.1551 107.827 58.1551C108.564 58.1551 109.275 57.9972 109.96 57.6812C110.644 57.3653 111.197 56.9177 111.618 56.3385C111.671 56.2332 111.829 56.1805 112.092 56.1805C112.25 56.1805 112.382 56.2595 112.487 56.4175C112.645 56.5228 112.672 56.7071 112.566 56.9704ZM103.799 11.2384C103.799 10.7645 103.694 10.5275 103.483 10.5275C103.167 10.5275 102.667 10.9751 101.982 11.8702C101.35 12.7127 100.719 13.8185 100.087 15.1876C99.4548 16.5567 98.9282 18.0047 98.507 19.5317C97.8751 21.9539 97.3485 24.1392 96.9273 26.0874C96.506 27.9831 96.1638 30.2473 95.9005 32.8801C95.8478 33.67 95.7952 34.5651 95.7425 35.5656C95.6899 36.5134 95.6372 37.3296 95.5845 38.0141C95.5845 38.6986 95.5845 39.0409 95.5845 39.0409C96.3744 37.7772 97.2169 36.4871 98.112 35.1707C99.0072 33.8543 99.7444 32.3009 100.324 30.5106C101.113 28.1937 101.745 25.7978 102.219 23.323C102.746 20.7955 103.141 18.4523 103.404 16.2934C103.667 14.1345 103.799 12.4495 103.799 11.2384Z" fill="#FDFDFD"/>
<path d="M130.372 46.3075C130.372 47.4133 130.135 48.8613 129.661 50.6516C129.187 52.4419 128.555 54.1269 127.765 55.7066C127.028 57.339 126.185 58.5501 125.238 59.3399C124.343 60.0771 123.474 60.6037 122.631 60.9196C121.789 61.1829 121.104 61.4462 120.578 61.7095C120.367 61.7621 120.13 61.8148 119.867 61.8674C119.656 61.9727 119.419 62.0254 119.156 62.0254C118.103 62.0254 117.287 61.7358 116.707 61.1566C116.497 60.9459 116.154 60.7353 115.681 60.5247C115.259 60.3141 114.864 59.9455 114.496 59.4189C114.127 58.8923 113.943 58.0235 113.943 56.8124C113.943 55.5487 114.101 54.3376 114.417 53.1791C113.469 52.0733 112.995 50.8622 112.995 49.5458C112.995 48.756 113.179 47.9925 113.548 47.2553C114.548 45.3597 115.812 43.8853 117.339 42.8322C118.866 41.779 120.314 41.0418 121.683 40.6206C123.105 40.1993 124.079 39.9887 124.606 39.9887C126.554 39.9887 128.002 40.6206 128.95 41.8843C129.898 43.1481 130.372 44.6225 130.372 46.3075ZM127.133 46.7024C127.133 45.4913 126.712 44.4908 125.87 43.701C125.08 42.9111 124.079 42.5162 122.868 42.5162C121.868 42.5162 120.841 42.8322 119.788 43.464C118.787 44.0433 117.918 44.7804 117.181 45.6756C116.444 46.5708 115.97 47.4396 115.76 48.2821C115.707 48.598 115.654 48.8876 115.602 49.1509C115.602 49.4142 115.602 49.6775 115.602 49.9408C116.181 48.677 116.786 47.6239 117.418 46.7814C118.103 45.9389 118.603 45.4123 118.919 45.2017C119.182 44.9911 119.524 44.8858 119.946 44.8858C120.525 44.8858 120.815 45.0437 120.815 45.3597C120.815 45.5703 120.525 45.9652 119.946 46.5444C119.419 47.071 118.814 47.7819 118.129 48.677C117.445 49.5195 116.865 50.5726 116.391 51.8364C116.813 52.3629 117.366 52.7579 118.05 53.0212C118.787 53.2318 119.498 53.3371 120.183 53.3371C120.92 53.3371 121.604 53.2055 122.236 52.9422C122.921 52.6262 123.368 52.205 123.579 51.6784C123.632 51.5205 123.658 51.3888 123.658 51.2835C123.711 51.1255 123.737 50.9939 123.737 50.8886C123.737 50.362 123.5 50.0461 123.026 49.9408C122.605 49.7828 122.184 49.7301 121.762 49.7828H121.604C121.025 49.7828 120.736 49.6512 120.736 49.3879C120.736 49.2299 120.788 49.0719 120.894 48.914C121.051 48.756 121.183 48.6244 121.288 48.519C121.604 48.2031 121.947 48.0451 122.315 48.0451C122.842 48.0451 123.421 48.3874 124.053 49.0719C124.632 49.8618 124.922 50.6253 124.922 51.3625C124.922 52.3103 124.448 53.0475 123.5 53.574C122.605 54.1006 121.604 54.4692 120.499 54.6798C119.393 54.8905 118.55 54.9958 117.971 54.9958C117.129 54.9958 116.444 54.8115 115.917 54.4429C115.865 54.5482 115.839 54.7851 115.839 55.1537C115.839 56.6281 116.233 57.6286 117.023 58.1551C117.813 58.6291 118.471 58.9976 118.998 59.2609C119.314 59.3662 119.577 59.4189 119.788 59.4189C120.525 59.4189 121.288 59.103 122.078 58.4711C122.921 57.8392 123.658 56.9704 124.29 55.8646C124.764 55.0221 125.211 54.0216 125.633 52.8632C126.054 51.7047 126.396 50.5726 126.659 49.4669C126.975 48.3084 127.133 47.3869 127.133 46.7024Z" fill="#FDFDFD"/>
</svg>
