<svg width="137" height="80" viewBox="0 0 137 80" fill="none" xmlns="http://www.w3.org/2000/svg">
<path d="M69.3484 22.0254C68.7165 23.9661 67.4979 25.4556 65.6925 26.4937C63.8872 27.5317 61.6305 28.0508 58.9224 28.0508C56.756 28.0508 54.4993 27.8702 52.1523 27.5092C49.8054 27.103 47.4584 26.6065 45.1114 26.0197C44.5247 27.5543 44.0959 29.2468 43.8251 31.0973C43.5994 32.9027 43.3061 34.866 42.945 36.9873C42.4485 39.9661 41.7941 42.9901 40.9817 46.0592C40.1693 49.1283 39.086 51.9267 37.732 54.4542C36.378 56.9817 34.6178 58.8999 32.4513 60.2087C31.5035 60.7504 30.6008 61.3145 29.7433 61.9013C28.9309 62.488 28.0056 62.9845 26.9676 63.3907C25.9746 63.7969 24.6883 64 23.1086 64C21.0776 64 19.543 63.6164 18.5049 62.8491C17.512 62.1269 16.835 61.0889 16.4739 59.7348C16.158 58.3808 16 56.7786 16 54.9281C16 54.6121 16.0677 54.0254 16.2031 53.1678C16.3836 52.3103 16.5642 51.4527 16.7447 50.5952C16.9704 49.7377 17.1735 49.1509 17.354 48.835C17.67 48.1128 18.2116 47.2102 18.9788 46.1269C19.7913 45.0437 20.7165 43.9605 21.7546 42.8773C22.7927 41.7941 23.8533 40.8914 24.9365 40.1693C26.0197 39.4471 27.0127 39.086 27.9154 39.086C28.2764 39.086 28.6827 39.3794 29.134 39.9661C29.6305 40.5078 30.0592 41.1396 30.4203 41.8618C30.7814 42.5839 30.9619 43.1932 30.9619 43.6897C30.9619 43.8702 30.8717 44.299 30.6911 44.976C30.5557 45.6079 30.2623 46.33 29.811 47.1425C29.3597 47.9097 28.6827 48.5867 27.78 49.1735C27.5994 49.2186 27.4189 49.2412 27.2384 49.2412C27.103 49.2412 26.945 49.2412 26.7645 49.2412C25.5007 49.2412 24.8688 48.9929 24.8688 48.4965C24.8688 48.0903 25.275 47.7292 26.0874 47.4133C26.8999 47.0522 27.5092 46.8491 27.9154 46.8039C28.3667 46.7588 28.6601 46.5783 28.7955 46.2623C28.9309 45.9013 28.9986 45.134 28.9986 43.9605C28.9986 43.7348 28.9309 43.3963 28.7955 42.945C28.7052 42.4937 28.5698 42.0649 28.3893 41.6587C28.2539 41.2525 28.0959 41.0494 27.9154 41.0494C27.1481 41.0494 26.3808 41.3879 25.6135 42.0649C24.8914 42.7419 24.2144 43.5769 23.5825 44.5698C22.9506 45.5628 22.3865 46.5557 21.89 47.5487C21.3935 48.4965 21.0324 49.2863 20.8068 49.9182C20.7165 50.189 20.5585 50.6403 20.3329 51.2722C20.1072 51.859 19.9041 52.4683 19.7236 53.1001C19.543 53.6869 19.4528 54.1382 19.4528 54.4542C19.4528 55.0409 19.4302 55.6502 19.385 56.2821C19.385 56.8688 19.385 57.4104 19.385 57.9069C19.385 59.1255 19.5882 60.1185 19.9944 60.8858C20.4457 61.653 21.4838 62.0367 23.1086 62.0367C24.5078 62.0367 25.6587 61.7884 26.5614 61.292C27.5092 60.7504 28.3216 60.1185 28.9986 59.3963C29.7207 58.6291 30.4203 57.8843 31.0973 57.1622C33.8505 54.3639 35.9944 51.2948 37.5289 47.9549C39.1086 44.5698 40.237 40.8011 40.914 36.6488C41.275 34.4372 41.6587 32.4513 42.0649 30.6911C42.5162 28.8858 43.103 27.2158 43.8251 25.6812C41.5233 25.0494 39.3117 24.4175 37.1904 23.7856C35.1142 23.1086 33.2186 22.5219 31.5035 22.0254C30.5557 21.7094 29.7433 21.4161 29.0663 21.1453C28.4344 20.8293 27.4415 20.6714 26.0874 20.6714C25.0945 20.6714 24.1016 20.8068 23.1086 21.0776C22.1608 21.3032 21.6869 21.89 21.6869 22.8378C21.6869 23.1086 21.6643 23.4245 21.6192 23.7856C21.6192 24.1467 21.6192 24.5078 21.6192 24.8688C21.6192 25.7264 21.732 26.6065 21.9577 27.5092C22.1834 28.3667 22.6573 29.1114 23.3794 29.7433C24.1016 30.33 25.2299 30.6685 26.7645 30.7588C27.3963 30.8039 27.8928 30.6685 28.2539 30.3526C28.6601 30.0367 28.9986 29.7207 29.2694 29.4048C29.4499 28.9535 29.7884 28.7278 30.2849 28.7278C30.7362 28.7278 30.9619 29.0437 30.9619 29.6756C30.9619 29.811 30.9394 29.9464 30.8942 30.0818C30.8942 30.2172 30.8716 30.3752 30.8265 30.5557C30.3752 31.0973 29.8336 31.6164 29.2017 32.1128C28.615 32.5642 27.8025 32.7898 26.7645 32.7898C25.9972 32.7898 25.1171 32.6544 24.1241 32.3836C23.1763 32.0677 22.2511 31.5261 21.3484 30.7588C20.4457 29.9464 19.7236 28.8406 19.1819 27.4415C18.6855 25.9972 18.5049 24.1693 18.6403 21.9577C18.7306 21.055 19.0691 20.1975 19.6559 19.385C20.2877 18.5726 21.055 17.9182 21.9577 17.4217C22.9055 16.8801 23.8307 16.6093 24.7334 16.6093C25.4556 16.6093 26.3583 16.7221 27.4415 16.9478C28.5247 17.1735 29.6305 17.4443 30.7588 17.7602C31.9323 18.0762 32.9929 18.3921 33.9408 18.708C34.9337 19.024 35.701 19.2722 36.2426 19.4527C37.6869 19.9041 39.1537 20.4683 40.6432 21.1453C42.1326 21.7772 43.6671 22.409 45.2468 23.0409C45.3371 22.9055 45.4274 22.7701 45.5176 22.6347C45.653 22.4993 45.7659 22.3413 45.8561 22.1608C46.3526 21.4838 46.8491 21.1453 47.3456 21.1453C47.5712 21.1453 47.6841 21.2581 47.6841 21.4838C47.6841 21.89 47.3681 22.4316 46.7362 23.1086C46.6911 23.1537 46.646 23.2214 46.6008 23.3117C46.5557 23.3568 46.488 23.4245 46.3977 23.5148C48.4739 24.3272 50.5952 25.0268 52.7616 25.6135C54.9281 26.2003 57.1848 26.4937 59.5317 26.4937C63.8646 26.4937 66.5726 24.9817 67.6558 21.9577C67.701 20.7842 67.9492 20.1975 68.4006 20.1975C68.6262 20.1975 68.8293 20.378 69.0099 20.7391C69.2355 21.1001 69.3484 21.5289 69.3484 22.0254Z" fill="#5C3B21"/>
<path d="M67.4506 56.2821C67.586 56.1467 67.7666 56.079 67.9922 56.079C68.3082 56.079 68.4661 56.237 68.4661 56.5529C68.4661 56.7334 68.3533 57.0042 68.1276 57.3653C67.9471 57.7264 67.5409 58.1551 66.909 58.6516C66.2771 59.1932 65.6227 59.6897 64.9457 60.141C64.3138 60.5924 63.4337 60.8181 62.3054 60.8181C61.0867 60.8181 60.1164 60.5924 59.3942 60.141C58.7172 59.6897 58.2207 59.1932 57.9048 58.6516C57.634 58.0649 57.4535 57.6135 57.3632 57.2976C56.8216 57.7038 56.2574 58.2454 55.6707 58.9224C55.1291 59.5543 54.3392 60.141 53.3011 60.6826C52.263 61.1791 50.7736 61.4274 48.8329 61.4274C47.7496 61.4274 46.7567 61.1791 45.854 60.6826C44.9965 60.141 44.5677 58.9901 44.5677 57.2299C44.5677 56.7334 44.5903 56.2144 44.6354 55.6728C44.7257 55.086 44.8611 54.4542 45.0416 53.7771C45.5832 51.6559 46.2151 49.9859 46.9372 48.7673C47.6594 47.5487 48.7426 46.646 50.1869 46.0592C51.0896 45.6982 52.1953 45.3597 53.5042 45.0437C54.8131 44.7278 55.964 44.457 56.957 44.2313C57.2729 44.141 57.5437 43.8477 57.7694 43.3512C58.0402 42.8096 58.3336 42.3131 58.6495 41.8618C58.83 41.6361 59.0331 41.4556 59.2588 41.3202C59.4845 41.1396 59.7327 41.0494 60.0035 41.0494C60.2292 41.0494 60.5226 41.1622 60.8836 41.3879C61.1996 41.6135 61.4027 42.0423 61.4929 42.6742C61.6283 43.3061 61.696 43.8928 61.696 44.4344C61.6509 44.7052 61.5381 45.0437 61.3575 45.4499C61.2221 45.811 61.1093 46.2172 61.019 46.6685C60.9288 47.2553 60.7031 48.0903 60.342 49.1735C59.981 50.2567 59.8004 51.1594 59.8004 51.8815C59.8004 52.5134 59.7553 53.3032 59.665 54.2511C59.5747 55.1537 59.5747 55.7856 59.665 56.1467C60.1615 57.2299 60.8611 57.952 61.7637 58.3131C62.6664 58.6291 63.4563 58.7193 64.1333 58.5839C64.6298 58.4936 65.1939 58.2003 65.8258 57.7038C66.4577 57.2073 66.9993 56.7334 67.4506 56.2821ZM56.4831 48.5642C56.3928 48.2031 56.1671 47.8195 55.8061 47.4133C55.4901 47.0071 55.0839 46.8039 54.5874 46.8039C54.4972 46.8039 54.3166 46.8491 54.0458 46.9393C53.2786 47.2102 52.4661 47.7292 51.6086 48.4965C50.7511 49.2186 50.0063 50.1664 49.3745 51.3399C48.7426 52.5134 48.3815 53.89 48.2913 55.4697C48.2913 55.921 48.4267 56.5078 48.6975 57.2299C49.0134 57.952 49.4196 58.5614 49.9161 59.0578C50.4126 59.5543 50.909 59.6897 51.4055 59.464C52.4887 59.0127 53.3914 58.3808 54.1135 57.5684C54.8808 56.7109 55.5127 55.6728 56.0092 54.4542C56.2348 53.8674 56.3928 53.2581 56.4831 52.6262C56.6185 51.9492 56.6862 51.3173 56.6862 50.7306C56.6862 50.189 56.6636 49.7377 56.6185 49.3766C56.5733 48.9704 56.5282 48.6996 56.4831 48.5642Z" fill="#5C3B21"/>
<path d="M82.9515 56.9591C82.3648 57.5458 81.8457 58.1326 81.3944 58.7193C80.943 59.3061 79.9501 59.9831 78.4155 60.7503C78.235 61.0212 77.8288 61.4274 77.1969 61.969C76.6102 62.5106 75.4367 62.8265 73.6765 62.9168C72.503 62.9619 71.5552 62.6685 70.833 62.0367C70.156 61.4499 69.637 60.7278 69.2759 59.8702C68.9148 59.0127 68.5989 58.2228 68.3281 57.5007C68.283 57.5458 68.0799 57.7264 67.7188 58.0423C67.3577 58.3583 66.9966 58.6742 66.6356 58.9901C66.2294 59.3061 65.9811 59.5092 65.8909 59.5994C65.8457 59.6446 65.7555 59.6671 65.6201 59.6671C65.3944 59.6671 65.2139 59.5543 65.0785 59.3286C64.8979 59.0578 64.8979 58.8322 65.0785 58.6516C65.936 57.7941 66.5904 57.1396 67.0418 56.6883C67.4931 56.1918 67.8993 55.7179 68.2604 55.2666C68.6215 54.8152 69.0502 54.2511 69.5467 53.574C70.314 52.4006 71.1264 51.3625 71.984 50.4598C72.8866 49.512 73.4508 48.8124 73.6765 48.3611C73.7216 48.3159 73.7442 48.2257 73.7442 48.0903C73.7442 47.9549 73.6765 47.842 73.5411 47.7518C73.4508 47.6615 73.3831 47.5487 73.338 47.4133C73.1574 46.6911 73.0672 46.0141 73.0672 45.3822C73.0672 44.3893 73.4508 43.2158 74.2181 41.8618C74.534 41.6361 74.9628 41.4556 75.5044 41.3202C76.046 41.1396 76.4748 41.1171 76.7907 41.2525C77.1518 41.433 77.3775 41.6361 77.4677 41.8618C77.6031 42.0874 77.716 42.3808 77.8062 42.7419C77.8062 42.787 77.8062 42.8322 77.8062 42.8773C77.8514 42.9224 77.8739 42.9901 77.8739 43.0804C77.8739 43.3512 77.8288 43.6446 77.7385 43.9605C77.6483 44.2764 77.5354 44.6149 77.4 44.976C77.4 45.1566 77.1744 45.4951 76.723 45.9915C76.3168 46.488 76.1814 46.8039 76.3168 46.9393C76.5876 47.5261 77.039 48.2934 77.6708 49.2412C78.4381 50.3244 78.9572 51.3173 79.228 52.22C79.5439 53.1227 79.7019 53.9351 79.7019 54.6573C79.7019 55.5148 79.5665 56.2595 79.2957 56.8914C79.07 57.5233 78.8894 58.0649 78.754 58.5162C79.1603 58.5614 79.6342 58.3582 80.1758 57.9069C80.7174 57.4104 81.2364 56.8688 81.7329 56.2821C82.2745 55.6502 82.6807 55.1989 82.9515 54.9281C83.2223 54.6573 83.4254 54.5219 83.5608 54.5219C83.7865 54.5219 83.7865 54.8604 83.5608 55.5374C83.3803 56.2144 83.1772 56.6883 82.9515 56.9591ZM76.3845 43.9605C76.3845 43.78 76.3619 43.5769 76.3168 43.3512C76.2717 43.1255 76.1363 42.9901 75.9106 42.945H75.8429C75.6172 42.945 75.4367 43.0578 75.3013 43.2835C75.1659 43.464 75.0531 43.6446 74.9628 43.8251C74.8274 44.1862 74.692 44.5021 74.5566 44.7729C74.4663 44.9986 74.5115 45.2243 74.692 45.4499C74.8725 45.5402 75.1885 45.3597 75.6398 44.9083C76.1363 44.4118 76.3845 44.0959 76.3845 43.9605ZM76.5199 54.7927C76.5199 54.1157 76.3845 53.3935 76.1137 52.6262C75.888 51.8138 75.6172 51.0917 75.3013 50.4598C75.0305 49.8279 74.8274 49.4217 74.692 49.2412C74.692 49.2412 74.4212 49.5797 73.8796 50.2567C73.338 50.8886 72.7512 51.5881 72.1194 52.3554C71.7131 52.8068 71.3069 53.3935 70.9007 54.1157C70.4945 54.8378 70.2463 55.4697 70.156 56.0113C70.156 56.0113 70.3591 56.2821 70.7653 56.8237C71.1715 57.3202 71.668 57.7941 72.2548 58.2454C72.8866 58.6968 73.4959 58.8547 74.0827 58.7193C74.9854 58.4937 75.6172 57.9746 75.9783 57.1622C76.3394 56.3047 76.5199 55.5148 76.5199 54.7927ZM74.2181 60.0733H73.6088C73.4282 60.0733 73.2251 60.0733 72.9995 60.0733C72.7738 60.0282 72.5481 59.9831 72.3225 59.9379C72.0968 59.8477 71.7583 59.6671 71.3069 59.3963C70.8556 59.1255 70.6299 58.9901 70.6299 58.9901C70.6299 58.9901 70.6074 59.0353 70.5622 59.1255C70.5622 59.2158 70.5622 59.3286 70.5622 59.464C70.5622 59.6446 70.5848 59.8477 70.6299 60.0733C70.7202 60.299 70.8782 60.5247 71.1038 60.7503C71.4649 61.0212 71.7808 61.2468 72.0517 61.4274C72.3225 61.5628 72.6835 61.5628 73.1349 61.4274C73.4508 61.3371 73.699 61.0889 73.8796 60.6826C74.1052 60.2764 74.2181 60.0733 74.2181 60.0733Z" fill="#5C3B21"/>
<path d="M105.628 57.9746C104.816 59.1481 103.913 60.0508 102.92 60.6826C101.972 61.2694 101.07 61.5628 100.212 61.5628C99.3545 61.5628 98.655 61.2694 98.1134 60.6826C97.4815 59.5994 97.0301 58.4937 96.7593 57.3653C96.5337 56.1918 96.3306 54.6798 96.15 52.8293C96.0146 50.9788 95.7213 48.4965 95.2699 45.3822C95.2699 45.3822 95.1345 45.2243 94.8637 44.9083C94.5929 44.5473 94.277 44.3667 93.9159 44.3667C93.6902 44.3667 93.442 44.5021 93.1712 44.7729C92.9004 44.9986 92.6296 45.4499 92.3588 46.1269C91.6818 47.842 91.1402 49.6248 90.734 51.4753C90.3729 53.3258 90.0344 55.0409 89.7184 56.6206C89.4025 58.2003 89.0189 59.4415 88.5675 60.3441C88.2516 60.976 87.8454 61.292 87.3489 61.292C86.9427 61.292 86.5591 61.0889 86.198 60.6826C86.198 60.6826 86.2206 60.2764 86.2657 59.464C86.356 58.6065 86.4688 57.5684 86.6042 56.3498C86.7396 55.086 86.8524 53.8674 86.9427 52.6939C86.8524 52.7391 86.6042 53.0099 86.198 53.5063C85.7918 53.9577 85.3404 54.409 84.844 54.8604C84.3475 55.2666 83.8962 55.4471 83.4899 55.402C83.2191 55.086 83.3545 54.6121 83.8962 53.9803C84.4378 53.3032 85.0471 52.5585 85.7241 51.7461C86.4462 50.8886 86.9427 50.0536 87.2135 49.2412C87.8454 47.3456 88.2742 45.3145 88.4998 43.1481C88.7706 40.9817 89.064 38.9281 89.3799 36.9873C90.0569 32.7898 90.734 29.1114 91.411 25.952C92.1331 22.7927 92.9907 20.3554 93.9836 18.6403C94.9765 16.8801 96.2403 16 97.7749 16C98.4067 16 98.9032 16.2482 99.2643 16.7447C99.6253 17.1961 99.8059 18.0536 99.8059 19.3173C99.8059 19.4979 99.8059 19.7236 99.8059 19.9944C99.8059 20.2652 99.7833 20.536 99.7382 20.8068C99.4674 23.8307 98.9032 27.1707 98.0457 30.8265C97.1881 34.4372 95.6536 38.3639 93.442 42.6065C93.9385 42.4711 94.4349 42.4034 94.9314 42.4034C95.8341 42.4034 96.6691 42.5614 97.4364 42.8773C98.2036 43.1481 98.7227 43.464 98.9935 43.8251C99.2643 44.1862 99.4448 44.5924 99.5351 45.0437C99.6254 45.4951 99.6705 46.0141 99.6705 46.6008C99.6705 47.7292 99.5351 49.1283 99.2643 50.7983C99.0386 52.4683 98.9258 54.4316 98.9258 56.6883C98.9258 57.4556 99.174 58.0423 99.6705 58.4485C100.212 58.8096 100.844 58.9901 101.566 58.9901C102.198 58.9901 102.807 58.8547 103.394 58.5839C103.981 58.3131 104.455 57.9295 104.816 57.433C104.861 57.3427 104.996 57.2976 105.222 57.2976C105.357 57.2976 105.47 57.3653 105.56 57.5007C105.696 57.591 105.718 57.7489 105.628 57.9746ZM98.1134 18.7757C98.1134 18.3695 98.0231 18.1664 97.8426 18.1664C97.5717 18.1664 97.143 18.5501 96.5562 19.3173C96.0146 20.0395 95.473 20.9873 94.9314 22.1608C94.3898 23.3343 93.9385 24.5755 93.5774 25.8843C93.0358 27.9605 92.5844 29.8336 92.2234 31.5035C91.8623 33.1283 91.5689 35.0691 91.3433 37.3258C91.2981 38.0028 91.253 38.7701 91.2079 39.6276C91.1627 40.4401 91.1176 41.1396 91.0725 41.7264C91.0725 42.3131 91.0725 42.6065 91.0725 42.6065C91.7495 41.5233 92.4716 40.4175 93.2389 39.2891C94.0062 38.1608 94.638 36.8293 95.1345 35.2948C95.8115 33.3089 96.3531 31.2553 96.7593 29.134C97.2107 26.9676 97.5492 24.9591 97.7749 23.1086C98.0005 21.2581 98.1134 19.8138 98.1134 18.7757Z" fill="#5C3B21"/>
<path d="M120.89 48.835C120.89 49.7828 120.687 51.024 120.281 52.5585C119.874 54.0931 119.333 55.5374 118.656 56.8914C118.024 58.2905 117.302 59.3286 116.489 60.0056C115.722 60.6375 114.977 61.0889 114.255 61.3597C113.533 61.5853 112.946 61.811 112.495 62.0367C112.315 62.0818 112.111 62.1269 111.886 62.1721C111.705 62.2623 111.502 62.3075 111.276 62.3075C110.374 62.3075 109.674 62.0592 109.178 61.5628C108.997 61.3822 108.704 61.2017 108.298 61.0212C107.937 60.8406 107.598 60.5247 107.282 60.0733C106.966 59.622 106.808 58.8773 106.808 57.8392C106.808 56.756 106.944 55.7179 107.214 54.725C106.402 53.7771 105.996 52.7391 105.996 51.6107C105.996 50.9337 106.154 50.2793 106.47 49.6474C107.327 48.0226 108.41 46.7588 109.719 45.8561C111.028 44.9535 112.269 44.3216 113.443 43.9605C114.661 43.5994 115.496 43.4189 115.948 43.4189C117.618 43.4189 118.859 43.9605 119.671 45.0437C120.484 46.1269 120.89 47.3907 120.89 48.835ZM118.114 49.1735C118.114 48.1354 117.753 47.2779 117.031 46.6008C116.354 45.9238 115.496 45.5853 114.458 45.5853C113.601 45.5853 112.721 45.8561 111.818 46.3977C110.961 46.8942 110.216 47.5261 109.584 48.2934C108.952 49.0606 108.546 49.8054 108.365 50.5275C108.32 50.7983 108.275 51.0465 108.23 51.2722C108.23 51.4979 108.23 51.7236 108.23 51.9492C108.726 50.866 109.245 49.9633 109.787 49.2412C110.374 48.519 110.803 48.0677 111.073 47.8872C111.299 47.7066 111.592 47.6164 111.953 47.6164C112.45 47.6164 112.698 47.7518 112.698 48.0226C112.698 48.2031 112.45 48.5416 111.953 49.0381C111.502 49.4894 110.983 50.0987 110.396 50.866C109.81 51.5882 109.313 52.4908 108.907 53.574C109.268 54.0254 109.742 54.3639 110.329 54.5896C110.961 54.7701 111.57 54.8604 112.157 54.8604C112.788 54.8604 113.375 54.7475 113.917 54.5219C114.504 54.2511 114.887 53.89 115.068 53.4386C115.113 53.3032 115.135 53.1904 115.135 53.1001C115.181 52.9647 115.203 52.8519 115.203 52.7616C115.203 52.3103 115 52.0395 114.594 51.9492C114.233 51.8138 113.872 51.7687 113.511 51.8138H113.375C112.879 51.8138 112.63 51.701 112.63 51.4753C112.63 51.3399 112.676 51.2045 112.766 51.0691C112.901 50.9337 113.014 50.8209 113.104 50.7306C113.375 50.4598 113.669 50.3244 113.984 50.3244C114.436 50.3244 114.932 50.6178 115.474 51.2045C115.97 51.8815 116.219 52.536 116.219 53.1678C116.219 53.9803 115.812 54.6121 115 55.0635C114.233 55.5148 113.375 55.8307 112.427 56.0113C111.48 56.1918 110.757 56.2821 110.261 56.2821C109.539 56.2821 108.952 56.1241 108.501 55.8082C108.456 55.8984 108.433 56.1016 108.433 56.4175C108.433 57.6812 108.772 58.5388 109.449 58.9901C110.126 59.3963 110.69 59.7123 111.141 59.9379C111.412 60.0282 111.638 60.0733 111.818 60.0733C112.45 60.0733 113.104 59.8025 113.781 59.2609C114.504 58.7193 115.135 57.9746 115.677 57.0268C116.083 56.3047 116.467 55.4471 116.828 54.4542C117.189 53.4612 117.482 52.4908 117.708 51.543C117.979 50.5501 118.114 49.7602 118.114 49.1735Z" fill="#5C3B21"/>
</svg>
